<svg xmlns="http://www.w3.org/2000/svg" width="1100" height="200" viewBox="0 0 1100 200" version="1.1"><path d="M 245 1.567 C 243.625 1.799, 239.350 2.493, 235.500 3.110 C 214.377 6.495, 193.038 17.283, 181.208 30.556 C 173.535 39.164, 167.049 53.646, 167.012 62.250 C 167.005 63.763, 166.718 65, 166.373 65 C 166.028 65, 162.835 63.567, 159.277 61.816 C 132.229 48.500, 85.539 72.393, 83.187 100.753 C 82.818 105.210, 82.469 106.004, 81.121 105.457 C 80.230 105.095, 76.751 104.314, 73.392 103.721 C 58.270 101.051, 40.570 111.092, 35.326 125.316 C 33.645 129.875, 33.744 140.024, 35.519 145.054 C 37.156 149.694, 37.198 149.607, 31.948 152.460 C 27.944 154.635, 21.026 162.689, 18.748 167.824 C 15.971 174.088, 15.922 183.079, 18.645 186.726 C 23.391 193.083, 21.077 192.793, 72 193.418 C 97.575 193.732, 182.400 194.217, 260.500 194.496 C 338.600 194.776, 461 195.227, 532.500 195.500 C 604 195.773, 751.857 196.281, 861.070 196.628 L 1059.641 197.259 1062.679 193.573 C 1066.742 188.645, 1068.171 183.453, 1067.428 176.325 C 1066.314 165.637, 1065.532 164.307, 1057.143 158.827 L 1049.500 153.834 1040 154.281 C 1034.775 154.527, 1029.487 155.067, 1028.250 155.481 C 1026.183 156.172, 1026 155.928, 1026 152.483 C 1026 145.509, 1023.854 140.777, 1018.039 134.930 C 1008.888 125.727, 995.938 120.568, 978.910 119.342 C 971.499 118.808, 956.570 120.080, 952.652 121.579 C 951.834 121.892, 951.500 119.335, 951.500 112.760 C 951.500 104.952, 951.115 102.718, 949.047 98.516 C 939.779 79.680, 912.866 72.639, 891.411 83.437 L 885.001 86.664 875.750 77.560 C 863.361 65.367, 851.341 59.138, 836.983 57.469 C 826.179 56.213, 812.339 60.446, 805.388 67.132 L 802.276 70.125 800.308 67.018 C 797.457 62.515, 788.032 55.761, 776 49.601 C 702.156 11.791, 556.357 12.061, 510.821 50.092 C 508.247 52.241, 505.963 54, 505.745 54 C 505.527 54, 502.967 51.064, 500.055 47.475 C 489.358 34.291, 469.975 21.639, 450.455 15.099 C 418.419 4.366, 384.415 8.399, 365.607 25.163 L 360.010 30.151 354.026 26.516 C 344.514 20.738, 328.426 13.526, 316.500 9.694 C 298.163 3.802, 285.920 1.826, 265.500 1.464 C 255.600 1.288, 246.375 1.335, 245 1.567" stroke="none" fill="#1c7cc5" fill-rule="evenodd"/></svg>
